<?xml version="1.0" standalone="no"?>
<!DOCTYPE svg PUBLIC "-//W3C//DTD SVG 20010904//EN"
 "http://www.w3.org/TR/2001/REC-SVG-20010904/DTD/svg10.dtd">
<svg version="1.0" xmlns="http://www.w3.org/2000/svg"
 width="768.000000pt" height="1024.000000pt" viewBox="0 0 768.000000 1024.000000"
 preserveAspectRatio="xMidYMid meet">

<g transform="translate(0.000000,1024.000000) scale(0.100000,-0.100000)"
fill="#ee0b72" stroke="none">
<path d="M1669 10210 c25 -18 47 -46 57 -70 10 -24 26 -44 43 -51 27 -12 27
-13 29 -118 0 -58 4 -117 8 -131 21 -80 15 -166 -12 -156 -17 7 -84 -55 -84
-78 0 -10 9 -16 25 -16 20 0 25 -5 25 -24 0 -27 15 -42 25 -26 11 17 20 11 39
-24 29 -54 20 -70 -41 -74 -44 -3 -58 2 -100 30 -26 18 -49 36 -51 41 -2 4
-13 7 -25 7 -27 0 -108 30 -125 47 -10 10 -18 10 -34 2 -12 -6 -38 -8 -62 -5
-33 5 -46 13 -60 36 -9 17 -20 30 -24 31 -4 0 -18 2 -31 3 -13 2 -31 13 -40
25 -9 12 -26 23 -38 24 -12 0 -20 4 -18 8 3 3 -5 16 -17 29 -20 22 -22 22 -35
4 -10 -13 -16 -15 -24 -7 -17 17 -3 43 21 43 34 0 22 42 -15 52 -18 5 -31 4
-33 -2 -2 -6 -10 -17 -18 -24 -18 -18 -18 -55 0 -79 7 -9 11 -29 8 -44 -4 -23
-2 -25 17 -20 17 4 21 1 21 -19 0 -13 5 -24 10 -24 6 0 10 -9 10 -20 0 -11 5
-19 12 -17 7 1 17 -8 23 -20 5 -13 18 -23 27 -23 10 0 18 -4 18 -10 0 -5 6
-10 13 -10 8 0 22 -9 32 -20 10 -12 25 -18 32 -16 8 3 16 -1 19 -9 4 -8 12
-15 19 -15 16 0 30 -18 39 -47 6 -18 3 -23 -11 -24 -16 0 -16 -1 2 -9 15 -7
10 -9 -22 -9 -24 -1 -43 3 -43 7 0 33 -168 53 -210 24 -14 -9 -45 -24 -70 -32
-34 -11 -54 -27 -84 -67 -36 -49 -42 -53 -80 -53 -34 0 -49 7 -87 43 -81 73
-98 86 -134 101 -22 9 -35 22 -35 33 0 10 -11 32 -25 48 -23 28 -26 29 -36 12
-10 -18 -11 -18 -25 0 -7 10 -14 29 -14 43 0 19 -10 32 -40 50 -22 14 -40 28
-40 33 0 4 -6 7 -13 7 -12 0 -46 111 -51 166 -4 38 -20 79 -35 90 -8 7 -20 31
-25 55 -8 30 -16 44 -28 44 -20 0 -58 34 -58 52 0 7 -11 18 -24 23 -13 5 -27
13 -30 18 -3 6 -15 8 -26 5 -12 -3 -22 0 -25 9 -4 9 -21 15 -45 16 l-40 2 0
-1715 0 -1715 24 -6 c14 -3 32 -14 42 -25 21 -23 44 -25 44 -3 0 26 28 45 72
48 24 2 51 6 61 10 9 3 24 8 33 11 8 3 12 9 9 15 -3 5 3 10 14 10 11 0 24 -8
29 -17 9 -15 11 -14 23 5 8 12 22 22 31 22 39 0 15 20 -24 21 l-43 2 50 7 c83
13 115 12 115 -5 0 -11 10 -15 38 -14 59 2 87 13 84 33 -3 16 2 18 30 13 18
-4 62 -9 98 -13 36 -4 68 -12 72 -17 4 -7 31 -7 81 -1 61 8 77 7 88 -5 10 -11
10 -16 1 -19 -7 -2 -12 -16 -12 -30 0 -16 3 -22 8 -15 4 6 38 13 79 14 39 2
71 6 71 9 0 3 0 37 1 77 l1 71 58 5 c31 2 67 8 80 12 20 7 22 4 22 -24 0 -30
2 -31 43 -32 23 -1 32 -4 20 -6 -33 -6 -28 -50 7 -56 14 -3 32 -1 40 4 12 7
10 8 -7 9 -14 0 -23 6 -23 16 0 11 8 14 33 12 23 -2 32 -8 31 -20 -1 -10 2
-18 7 -18 5 0 8 -6 6 -12 -3 -17 50 -23 69 -7 10 8 14 8 14 0 0 -17 36 -13 51
5 8 9 12 29 10 43 -1 14 0 23 4 19 4 -4 19 2 33 12 13 11 33 20 43 20 14 0 19
7 19 25 0 14 -4 25 -10 25 -9 0 -14 -14 -11 -32 1 -10 -3 -10 -33 2 -20 7 -26
16 -26 40 0 28 2 30 40 30 33 0 40 4 40 19 0 16 11 20 80 26 75 7 80 9 80 30
0 15 8 26 20 30 34 11 48 -10 46 -73 -1 -61 -19 -79 -24 -24 -2 24 -8 32 -23
32 -15 0 -19 -7 -19 -35 0 -34 -1 -35 -40 -35 l-40 0 0 -80 0 -79 80 5 c52 3
80 1 80 -6 0 -5 9 -10 20 -10 17 0 20 7 20 40 0 29 -4 40 -15 40 -18 0 -19 2
-1 45 16 38 30 44 40 18 6 -15 8 -15 16 -3 7 12 13 11 33 -8 13 -12 29 -22 35
-22 7 0 12 -4 12 -10 0 -5 18 -10 40 -10 33 0 40 3 40 20 0 17 7 20 40 20 28
0 40 4 40 14 0 8 -6 16 -12 19 -10 3 -10 9 0 26 6 11 12 38 12 58 1 61 17 73
94 73 l66 0 0 40 c0 22 5 40 10 40 6 0 10 18 10 40 0 22 -5 40 -11 40 -6 0 -3
7 5 16 9 8 16 20 16 25 0 6 3 8 8 6 4 -3 16 -1 27 4 l20 8 -20 1 c-19 1 -19 1
-2 14 10 8 27 12 37 9 11 -3 20 0 20 6 0 6 7 11 15 11 8 0 15 5 15 10 0 6 3 9
8 8 6 -2 122 22 130 27 1 1 0 10 -4 19 -4 10 -18 16 -40 16 -53 0 -40 16 18
23 28 4 55 12 59 18 4 7 12 8 20 4 9 -6 11 -3 6 9 -4 10 -1 19 8 22 21 9 19
37 -6 68 -26 32 -17 47 11 21 14 -12 33 -18 56 -17 37 3 37 3 25 -51 -8 -32
-6 -42 14 -65 20 -23 37 -31 104 -42 47 -8 82 -19 85 -27 8 -20 145 -18 152 2
9 23 159 22 168 -1 5 -13 17 -16 62 -12 51 4 56 3 75 -24 12 -16 30 -28 43
-28 12 0 33 -10 45 -21 l23 -22 -7 24 c-6 22 -4 21 23 -9 24 -25 31 -29 36
-17 3 9 -1 18 -9 21 -21 8 -9 23 14 17 10 -3 22 0 25 6 9 14 63 14 71 1 3 -5
17 -10 31 -10 26 0 32 -18 12 -38 -9 -9 -8 -12 5 -12 9 0 17 -6 17 -14 0 -22
29 -41 42 -28 9 9 6 12 -11 12 -18 0 -20 2 -9 13 7 7 22 17 33 22 18 7 18 9 3
12 -24 6 -23 19 2 26 13 3 18 10 14 21 -3 9 -1 16 5 16 6 0 11 14 11 30 0 24
6 33 28 41 45 18 55 25 66 42 8 13 8 20 0 25 -6 4 -11 15 -11 25 0 9 3 15 5
12 3 -3 11 0 18 6 7 6 34 11 60 11 28 1 48 6 51 15 3 7 20 13 38 13 25 0 35
-5 40 -20 3 -11 11 -20 16 -20 5 0 9 9 9 20 0 13 7 20 20 20 13 0 20 -7 20
-20 0 -15 7 -20 25 -20 14 0 30 -9 37 -20 7 -11 18 -20 25 -20 19 0 16 -17 -4
-29 -15 -9 -11 -11 17 -9 59 2 100 -11 100 -33 0 -16 5 -18 28 -13 15 4 32 10
37 14 9 7 93 15 121 11 5 0 20 -10 32 -21 l22 -21 0 22 c0 15 4 19 16 15 9 -3
27 -9 40 -12 13 -3 24 -12 24 -20 0 -8 5 -14 10 -14 7 0 7 -7 0 -21 -14 -25
-9 -69 9 -89 9 -9 35 -16 68 -16 30 -1 67 -8 84 -14 20 -9 54 -11 107 -6 42 4
110 8 150 9 60 2 75 5 84 20 8 16 18 18 53 13 38 -6 44 -4 59 18 9 14 16 37
16 51 0 24 3 25 52 25 40 0 49 3 40 12 -19 19 -15 24 26 36 53 17 86 70 87
140 0 56 18 82 57 82 18 0 22 -8 18 -47 -1 -14 4 -23 13 -23 7 0 20 -11 27
-25 10 -19 10 -27 1 -39 -7 -8 -10 -20 -6 -26 4 -6 1 -17 -5 -25 -17 -21 58
-95 97 -95 30 0 62 -28 55 -48 -2 -7 1 -12 7 -12 6 0 11 -15 11 -34 0 -29 5
-37 30 -48 17 -7 30 -16 30 -20 0 -3 18 -21 40 -38 31 -24 44 -29 54 -21 9 8
22 8 46 -1 26 -9 35 -9 38 0 2 7 21 12 43 12 21 0 39 5 39 10 0 6 9 10 20 10
11 0 20 -7 20 -15 0 -15 49 -45 74 -45 8 0 21 10 28 23 15 25 15 28 17 85 1
35 4 42 21 42 11 0 20 5 20 10 0 6 5 10 10 10 6 0 10 -7 10 -15 0 -8 5 -15 10
-15 6 0 10 -9 10 -20 0 -26 17 -26 25 -1 4 15 17 21 48 23 38 3 42 6 45 31 2
15 12 33 23 40 10 6 19 17 19 24 0 17 4 16 42 -7 35 -21 68 -26 68 -10 0 6 11
10 24 10 18 0 33 -12 53 -42 26 -39 33 -43 75 -46 38 -2 48 -7 54 -25 9 -30
39 -57 64 -57 19 0 20 -6 20 -120 l0 -121 38 0 c31 0 69 -2 112 -8 6 0 10 -21
10 -46 l0 -45 80 0 c62 0 80 -3 80 -14 0 -11 18 -15 75 -18 44 -2 77 1 79 7 3
6 5 -7 5 -27 1 -36 3 -38 35 -38 18 0 47 -7 62 -15 16 -8 37 -15 47 -15 16 0
17 44 17 774 0 555 -3 777 -11 782 -19 11 -71 -51 -78 -92 -6 -40 -4 -38 -99
-53 -37 -5 -58 -4 -69 4 -22 17 -63 -1 -63 -27 0 -22 -25 -24 -34 -3 -3 8 -3
28 0 44 4 19 0 38 -12 56 -16 25 -16 28 0 55 16 28 16 30 -2 48 -10 10 -21 26
-25 35 -7 20 27 93 48 100 8 4 15 13 15 21 0 8 8 19 18 25 43 25 -48 75 -93
51 -21 -11 -155 -7 -176 5 -5 4 -14 18 -20 32 l-9 24 -28 -19 c-36 -26 -82
-73 -82 -83 0 -13 -34 -11 -48 3 -7 7 -12 18 -12 26 0 8 -9 25 -20 39 -11 14
-20 41 -20 59 0 30 -3 33 -32 36 -18 2 -45 -2 -60 -9 -18 -9 -29 -9 -33 -3 -4
6 -11 8 -16 5 -15 -10 -10 22 6 39 16 16 20 63 7 84 -5 7 -31 15 -59 19 -48 5
-52 8 -66 45 -17 43 -14 62 15 94 21 24 37 94 20 94 -14 0 -26 71 -13 79 7 5
8 18 1 39 -6 24 -5 42 8 70 9 20 17 53 18 73 2 30 -2 39 -22 48 -14 6 -31 11
-39 11 -27 0 -23 17 11 50 28 26 35 29 32 14 -2 -13 3 -20 17 -22 32 -4 44 11
51 61 6 38 4 47 -9 47 -31 0 -28 33 5 67 40 41 60 39 66 -7 2 -19 8 -41 14
-47 13 -16 38 -17 38 -2 0 5 4 8 9 5 5 -3 12 5 15 19 4 15 16 27 32 31 22 6
24 10 19 35 -5 21 -1 36 14 55 12 15 21 36 21 47 0 11 7 29 16 38 15 17 15 21
2 41 -15 24 -13 94 3 104 13 7 11 48 -3 80 -10 21 -10 28 2 38 8 6 20 20 26
31 16 28 36 29 64 5 17 -15 34 -20 55 -17 16 2 37 1 45 -4 34 -17 89 -39 98
-39 6 0 12 6 15 13 3 9 7 9 18 1 25 -20 66 -25 79 -9 6 8 9 19 5 25 -4 6 1 21
12 32 13 15 15 22 6 25 -20 7 -15 27 8 41 12 8 18 9 14 3 -3 -6 1 -11 9 -11 9
0 16 7 16 15 0 8 12 18 26 21 22 6 25 10 18 33 -8 28 -8 38 2 94 l6 37 -106 0
c-83 0 -112 -4 -132 -17 -25 -16 -27 -16 -36 0 -7 13 -23 17 -63 17 -51 0 -55
-2 -55 -23 0 -13 -8 -30 -18 -38 -23 -20 -70 -24 -69 -7 2 65 0 68 -57 68 -30
0 -56 -5 -58 -10 -2 -6 -26 -18 -53 -28 -28 -10 -51 -22 -51 -27 -5 -34 -19
-54 -40 -58 -19 -3 -26 1 -30 19 -3 13 -9 24 -13 24 -3 0 -6 18 -5 40 l1 40
-359 0 -358 0 0 -32 c0 -18 -1 -76 -3 -128 l-2 -95 25 2 c14 2 40 6 58 9 26 5
32 3 32 -11 0 -11 5 -15 15 -11 9 3 15 0 15 -10 0 -8 -7 -17 -15 -20 -11 -5
-15 -22 -15 -68 0 -34 -4 -66 -9 -72 -16 -16 -61 -106 -61 -122 0 -11 -8 -13
-33 -8 -42 8 -102 -16 -118 -45 -14 -28 -75 -89 -88 -89 -5 0 -12 7 -15 16
-10 27 -28 4 -21 -27 4 -16 3 -28 -2 -27 -12 4 -14 -9 -7 -38 4 -16 10 -22 16
-16 14 14 56 -9 62 -33 9 -33 7 -41 -18 -68 -14 -15 -26 -37 -28 -49 -3 -20 1
-23 26 -21 17 1 35 -2 42 -8 6 -5 19 -7 28 -3 10 4 18 0 22 -12 4 -11 30 -41
58 -67 51 -48 66 -53 126 -36 29 8 24 -42 -6 -66 -28 -22 -28 -25 -17 -66 10
-36 9 -45 -4 -54 -10 -8 -14 -21 -11 -38 3 -16 0 -28 -8 -31 -7 -3 -16 -17
-20 -33 -12 -44 -49 -72 -90 -66 -55 9 -62 -4 -60 -120 1 -56 4 -109 7 -117 5
-20 -32 -14 -48 8 -18 22 -16 29 9 36 27 6 16 21 -23 31 -21 5 -27 2 -32 -14
-3 -13 1 -24 10 -29 12 -8 12 -10 0 -21 -10 -8 -17 -9 -22 -1 -12 20 -40 9
-62 -26 -13 -20 -23 -40 -23 -45 0 -6 -15 -16 -33 -24 -19 -8 -40 -21 -47 -30
-7 -9 -29 -23 -48 -31 -32 -13 -34 -16 -30 -54 l4 -40 -37 0 c-35 0 -37 -2
-56 -52 -21 -55 -19 -67 15 -110 8 -9 11 -22 7 -27 -3 -6 -3 -11 0 -11 3 0 11
14 16 30 12 34 47 41 73 14 15 -14 16 -13 16 15 0 16 4 33 10 36 6 3 10 15 10
26 0 26 12 24 40 -5 12 -14 36 -28 52 -31 23 -6 27 -9 17 -21 -6 -8 -7 -14 -2
-14 5 0 17 -13 26 -29 10 -17 26 -32 36 -36 25 -8 54 -52 44 -68 -4 -6 -6 -26
-4 -44 6 -78 -59 -176 -121 -181 -17 -1 -35 3 -39 10 -8 12 13 61 38 90 8 9
13 30 11 50 l-3 33 -21 -21 c-18 -18 -30 -21 -73 -16 -57 5 -73 18 -46 38 27
20 11 28 -27 15 -28 -10 -35 -9 -45 5 -12 16 -13 16 -19 1 -8 -22 -43 -22 -59
0 -15 20 -45 11 -52 -17 -3 -11 -12 -20 -19 -20 -8 0 -14 -6 -14 -13 0 -17
-72 -15 -78 3 -3 7 -13 20 -23 28 -23 20 -24 41 -3 49 9 3 14 13 11 24 -3 11
-2 19 3 19 4 0 15 16 24 35 21 44 18 109 -6 113 -13 2 -15 -2 -11 -19 5 -20 3
-21 -18 -15 -13 5 -32 8 -41 9 -10 1 -18 6 -18 12 0 7 -11 22 -25 35 -14 13
-25 31 -25 41 0 10 -8 31 -17 48 -30 51 -98 34 -118 -29 -8 -27 -55 -97 -92
-137 -13 -13 -23 -27 -23 -30 0 -3 -9 -14 -21 -24 -25 -21 -22 -27 30 -63 37
-26 43 -27 78 -16 70 22 92 34 102 57 18 40 28 25 29 -44 1 -71 26 -143 50
-143 6 0 12 5 12 10 0 6 9 10 19 10 11 0 23 -4 26 -10 3 -6 -4 -10 -18 -10
-14 0 -31 -7 -38 -17 -13 -15 -17 -31 -22 -98 -3 -45 -14 -55 -59 -55 -30 0
-41 -4 -45 -18 -2 -10 -18 -24 -36 -32 -28 -12 -29 -14 -11 -21 16 -6 14 -8
-11 -9 l-30 -2 30 -7 c20 -4 26 -9 18 -14 -7 -4 -22 -3 -32 3 -11 6 -35 9 -53
7 -23 -3 -39 2 -50 15 -10 10 -16 18 -13 18 3 0 1 9 -5 20 -6 11 -17 20 -25
20 -8 0 -15 7 -15 15 0 8 -6 15 -14 15 -8 0 -16 5 -18 11 -3 8 -14 8 -43 0
-49 -13 -98 -14 -90 -2 3 5 -4 12 -15 16 -11 3 -20 13 -20 21 0 8 -12 20 -27
27 -15 6 -37 21 -49 32 -12 11 -36 31 -53 45 -29 22 -42 60 -22 60 5 0 17 7
26 16 15 15 17 15 31 -2 14 -19 14 -19 29 0 8 10 16 23 17 27 4 12 77 -23 78
-37 0 -9 36 -16 75 -15 72 3 107 41 38 41 l-38 0 1 125 c2 124 1 126 -20 119
-24 -8 -36 -22 -36 -46 0 -10 -9 -26 -21 -36 -19 -18 -19 -21 -4 -36 9 -9 20
-16 24 -16 7 0 41 -53 41 -64 0 -12 -66 -6 -94 9 -36 19 -70 10 -85 -21 -6
-13 -17 -24 -25 -24 -8 0 -16 -6 -19 -12 -3 -9 -10 -8 -26 6 -11 11 -21 14
-21 8 0 -7 -4 -12 -10 -12 -5 0 -10 9 -10 20 0 12 7 20 18 20 10 0 27 7 39 15
21 15 21 16 5 46 -17 29 -16 31 7 50 29 24 22 63 -16 96 -14 12 -23 29 -20 36
3 8 0 20 -6 26 -8 8 -8 11 2 11 18 0 4 88 -20 122 -13 19 -17 36 -13 57 4 20
2 31 -5 31 -6 0 -11 7 -11 16 0 12 -9 15 -37 12 -26 -2 -38 2 -41 12 -3 8 -10
21 -16 29 -6 8 -11 40 -11 72 0 58 10 75 42 70 7 -1 22 12 34 28 12 17 25 28
29 26 11 -7 21 105 14 143 -6 32 -6 33 22 30 21 -2 29 2 32 16 5 26 26 46 47
46 11 0 15 5 11 15 -4 12 -2 13 14 2 11 -6 23 -20 26 -29 3 -10 15 -18 26 -18
11 0 37 -8 57 -19 70 -36 111 -51 111 -41 0 6 -10 15 -22 20 l-23 9 23 0 c27
1 28 17 3 39 -11 10 -21 26 -23 37 -2 15 3 21 24 23 29 3 61 38 51 55 -4 6 0
8 8 5 10 -4 15 5 16 33 2 38 2 38 -30 32 -17 -3 -34 -6 -37 -6 -3 -1 -19 7
-37 16 -18 9 -40 17 -50 17 -10 0 -29 9 -43 20 -29 22 -56 26 -63 8 -9 -25 6
-79 24 -89 26 -13 15 -29 -21 -29 -23 0 -30 5 -35 29 -4 21 -11 28 -21 24 -22
-8 -60 15 -73 44 -17 37 -13 50 14 57 14 4 25 13 25 21 0 16 51 55 74 55 9 0
16 5 16 10 0 6 9 10 20 10 11 0 20 7 20 15 0 8 9 15 19 15 23 0 36 16 22 25
-17 10 -8 108 11 129 17 18 19 18 36 3 10 -9 22 -17 26 -17 4 0 15 -9 24 -20
14 -16 23 -18 46 -12 36 10 42 24 21 45 -8 9 -15 26 -15 39 0 28 -9 42 -32 51
-10 3 -18 15 -18 26 0 11 -7 27 -16 36 -20 20 -11 45 16 45 28 0 25 18 -10 48
-16 15 -30 31 -30 37 1 5 18 27 39 48 l38 38 37 -20 c20 -12 38 -21 40 -21 2
0 7 41 11 92 7 92 16 113 50 119 11 3 23 17 28 35 7 24 4 37 -15 67 l-23 36
-1594 1 -1594 0 42 -30z m2621 -105 c0 -7 6 -18 13 -22 6 -4 19 -21 27 -37 8
-16 23 -31 33 -34 25 -6 21 -24 -13 -57 l-30 -29 0 25 c0 23 -29 42 -93 63
-26 8 -12 24 16 19 29 -6 67 41 42 51 -17 6 -21 36 -5 36 6 0 10 -7 10 -15z
m-4210 -65 c0 -11 -6 -20 -14 -20 -21 0 -31 21 -15 31 22 14 29 11 29 -11z
m2800 -261 c0 -7 14 -8 40 -4 56 10 92 -1 136 -40 32 -29 37 -38 28 -52 -15
-24 -39 -23 -39 2 0 13 -8 21 -22 23 -17 3 -27 -6 -42 -37 -12 -22 -21 -47
-21 -55 0 -19 -48 -18 -69 1 -16 17 -70 155 -64 166 7 11 53 8 53 -4z m3600
-26 c0 -16 17 -17 22 -1 5 14 28 2 28 -16 0 -7 -9 -22 -21 -35 -16 -17 -24
-20 -35 -10 -7 6 -21 9 -29 5 -26 -9 -45 5 -45 33 0 36 6 41 46 39 21 -1 34
-6 34 -15z m-1960 -23 c0 -5 -4 -10 -10 -10 -5 0 -10 5 -10 10 0 6 5 10 10 10
6 0 10 -4 10 -10z m1850 -19 c0 -11 -42 -43 -48 -37 -2 2 3 13 10 25 13 21 38
29 38 12z m-87 -68 c4 -7 13 -13 18 -13 6 0 22 -9 35 -19 l24 -19 -26 -21
c-15 -12 -28 -32 -30 -44 -1 -12 -3 -25 -3 -29 -2 -13 -45 -8 -64 7 -15 11
-19 28 -20 79 -1 74 15 105 42 84 9 -7 20 -19 24 -25z m-6037 3 c8 -8 14 -22
14 -30 0 -9 6 -16 14 -16 10 0 17 -16 21 -47 3 -27 10 -56 16 -65 19 -36 11
-48 -30 -48 -22 0 -43 -4 -46 -10 -9 -15 -34 -12 -52 5 -14 15 -53 126 -53
154 0 8 -8 20 -17 27 -16 11 -15 14 17 28 44 19 97 20 116 2z m6134 -210 c0
-2 -7 -9 -15 -16 -13 -11 -14 -10 -9 4 5 14 24 23 24 12z m80 -61 c31 -16 42
-42 14 -31 -9 3 -22 6 -30 6 -9 0 -12 5 -9 10 3 6 1 10 -4 10 -6 0 -11 5 -11
10 0 13 6 13 40 -5z m-3780 -135 c22 -21 40 -42 40 -45 0 -2 10 -16 22 -30 16
-19 25 -22 35 -14 7 6 10 15 7 21 -3 5 -3 16 0 25 5 11 10 13 19 4 8 -6 34
-10 58 -10 38 0 78 -5 87 -11 2 -2 14 -6 28 -9 4 0 0 -9 -7 -18 -13 -15 -12
-16 9 -10 48 12 73 -25 33 -50 -10 -6 -27 -32 -37 -57 -16 -39 -23 -46 -47
-46 -20 0 -31 -7 -39 -25 -9 -19 -16 -24 -32 -19 -11 4 -42 8 -68 9 -39 2 -48
-1 -53 -16 -11 -33 -54 -23 -97 22 -36 37 -43 67 -13 56 18 -7 43 26 51 67 5
29 3 36 -10 36 -12 0 -16 10 -16 39 0 31 -4 41 -20 46 -24 8 -44 41 -36 61 10
25 44 15 86 -26z m460 -120 c12 -45 -2 -61 -31 -34 -29 26 -42 63 -28 80 16
20 47 -4 59 -46z m-2320 30 c0 -5 -4 -10 -10 -10 -5 0 -10 5 -10 10 0 6 5 10
10 10 6 0 10 -4 10 -10z m5280 -264 c0 -2 -7 -7 -16 -10 -8 -3 -12 -2 -9 4 6
10 25 14 25 6z m-1880 -116 c0 -5 -4 -10 -10 -10 -5 0 -10 5 -10 10 0 6 5 10
10 10 6 0 10 -4 10 -10z m-3312 -20 c6 0 12 -6 12 -13 0 -20 57 -58 98 -64 36
-6 80 -28 94 -47 3 -5 4 -16 0 -24 -3 -10 -1 -13 6 -8 8 4 16 -3 23 -21 15
-40 39 -63 64 -63 31 0 52 -55 40 -106 -4 -16 -12 -20 -44 -20 -22 1 -43 4
-47 9 -15 14 -20 6 -33 -54 -16 -71 -16 -94 -2 -175 9 -51 9 -100 -1 -109 -2
-2 -20 -10 -40 -18 -31 -13 -38 -21 -38 -44 -1 -30 -25 -65 -53 -76 -23 -9
-40 -55 -33 -91 7 -34 -21 -86 -46 -86 -10 0 -39 10 -64 21 -36 18 -50 20 -69
11 -24 -11 -24 -12 -10 -53 14 -38 14 -44 -2 -61 -14 -15 -25 -17 -62 -12 -25
4 -55 13 -66 20 -11 8 -32 14 -47 14 -16 0 -28 5 -28 11 0 6 -7 17 -14 25 -11
10 -13 27 -10 58 5 36 0 57 -29 117 -19 41 -38 88 -42 106 -8 41 -20 50 -78
58 -26 4 -53 15 -60 24 -20 27 -94 81 -110 81 -9 0 -19 5 -22 10 -3 6 -26 10
-50 10 -44 0 -65 12 -86 51 -5 11 -8 28 -4 38 3 11 -3 25 -15 36 -28 25 -25
35 10 35 28 0 30 3 30 35 0 25 -6 39 -24 50 -36 24 -40 44 -11 55 27 10 33 41
12 58 -17 15 -20 62 -4 62 7 0 18 -5 24 -11 11 -11 83 17 83 33 0 4 7 8 15 8
8 0 15 5 15 10 0 17 51 11 87 -11 30 -19 34 -26 29 -50 -4 -21 -1 -29 14 -34
10 -3 23 -19 29 -35 10 -29 13 -30 70 -30 34 0 61 5 63 11 2 7 25 1 60 -15 59
-27 88 -33 88 -17 0 10 55 41 74 42 18 0 53 52 65 94 7 26 19 44 33 50 16 7
23 19 24 38 2 45 25 79 49 73 11 -3 26 -6 33 -6z m1062 -25 c15 -18 5 -35 -20
-35 -22 0 -34 15 -26 35 7 19 30 19 46 0z m2220 1 c0 -14 -24 -29 -33 -19 -3
3 -3 11 0 19 7 18 33 18 33 0z m-1682 -27 c12 -8 22 -17 22 -20 0 -16 53 -19
76 -4 34 22 57 19 88 -14 15 -16 44 -32 63 -36 19 -3 33 -9 30 -13 -2 -4 -9
-22 -16 -40 -13 -32 -15 -33 -55 -27 -56 8 -86 25 -86 47 0 23 -4 23 -56 -3
-85 -41 -194 -30 -194 19 0 10 -5 23 -11 29 -19 19 -2 59 32 76 33 16 66 11
107 -14z m-478 -35 c0 6 9 0 20 -12 11 -11 17 -27 14 -35 -3 -8 -1 -18 5 -22
16 -9 13 -25 -5 -25 -17 0 -74 58 -74 76 0 7 -7 15 -16 18 -15 6 -15 8 1 26
18 20 19 20 37 -7 10 -16 18 -24 18 -19z m834 -59 c13 -14 27 -25 32 -25 14 0
64 -46 64 -58 0 -22 -21 -23 -58 -3 -20 10 -44 21 -53 24 -9 3 -19 19 -22 37
-4 17 -11 29 -17 25 -5 -3 -10 1 -10 9 0 25 38 19 64 -9z m3246 -56 c21 -28
23 -29 41 -13 17 15 20 15 54 -5 27 -16 41 -19 55 -11 10 5 41 10 69 10 43 0
53 -4 67 -25 9 -14 24 -25 33 -25 9 0 24 -9 34 -20 14 -17 21 -18 37 -10 11 6
20 15 20 20 0 16 59 22 115 10 42 -9 61 -19 77 -41 14 -18 28 -27 38 -24 9 3
34 -2 56 -12 21 -9 43 -16 47 -15 4 1 10 -5 13 -13 8 -19 40 -19 48 0 7 19 37
19 62 0 10 -8 29 -15 42 -15 16 0 22 -6 22 -21 0 -20 4 -21 44 -17 25 3 49 1
54 -4 6 -6 17 -5 30 3 18 11 24 10 41 -5 23 -21 19 -36 -10 -36 -14 0 -19 -7
-19 -29 0 -16 -7 -34 -15 -41 -8 -7 -15 -21 -15 -31 0 -15 -5 -18 -23 -14 -27
7 -53 -18 -59 -55 -1 -14 -8 -25 -15 -25 -17 0 -21 -7 -26 -40 -2 -21 -10 -31
-24 -33 -17 -3 -21 4 -27 37 -8 54 -41 74 -58 36 -6 -14 -19 -25 -27 -24 -36
3 -48 -2 -59 -26 -13 -28 -32 -33 -32 -8 0 25 -184 12 -231 -16 -43 -27 -86
-27 -94 -2 -3 10 -23 31 -45 46 -22 15 -40 35 -40 43 0 22 132 144 144 132 4
-4 15 -6 23 -3 18 7 46 61 38 73 -9 14 -33 12 -37 -2 -3 -9 -18 -8 -57 5 -29
9 -64 17 -77 17 -20 0 -23 6 -26 43 l-3 42 -75 7 c-46 5 -78 4 -84 -2 -15 -15
-43 -12 -50 5 -6 17 -40 15 -58 -3 -7 -7 -19 -12 -28 -12 -9 0 -21 -5 -28 -12
-13 -13 -46 8 -36 24 3 5 -1 20 -10 33 -14 21 -14 26 0 54 9 17 20 31 26 31 5
0 8 6 5 14 -5 13 10 36 24 36 4 0 17 -14 29 -31z m-3926 -40 c14 -11 26 -27
26 -35 0 -18 12 -18 50 4 30 16 31 16 43 -3 38 -63 37 -105 -3 -105 -31 0 -65
-39 -62 -71 4 -29 3 -29 -40 -23 -51 8 -72 28 -56 54 9 14 6 27 -15 63 -55 94
-16 174 57 116z m2106 -9 c0 -12 -44 -20 -53 -11 -15 15 1 29 28 23 14 -2 25
-8 25 -12z m-2281 -97 c17 -15 31 -33 31 -39 0 -16 -36 -24 -71 -17 -22 4 -29
11 -29 29 0 13 -4 24 -10 24 -20 0 -10 19 13 23 12 2 25 5 28 6 4 0 21 -11 38
-26z m5201 6 c0 -5 -4 -9 -9 -9 -5 0 -11 -12 -13 -27 -2 -14 -8 -28 -14 -30
-15 -5 -27 39 -13 48 5 3 9 10 8 15 -1 5 -1 12 0 16 2 9 41 -3 41 -13z m-1377
-276 c7 -38 -1 -51 -29 -49 -22 1 -24 4 -18 31 8 39 12 45 28 45 8 0 16 -12
19 -27z m-1573 -134 c0 -5 -4 -9 -10 -9 -5 0 -10 7 -10 16 0 8 5 12 10 9 6 -3
10 -10 10 -16z m3125 12 c3 -5 -2 -16 -10 -24 -8 -9 -15 -27 -15 -40 0 -13 -9
-45 -20 -70 -12 -26 -18 -56 -15 -69 3 -13 0 -32 -9 -43 -13 -18 -18 -19 -63
-7 -26 7 -49 17 -51 23 -2 5 -12 9 -22 9 -35 0 -69 22 -79 51 -5 16 -14 29
-19 29 -5 0 -14 11 -20 24 -9 19 -8 25 4 30 8 3 14 15 14 26 0 19 18 27 45 20
6 -2 36 -4 69 -5 50 -3 59 -1 63 16 4 14 14 19 37 19 17 0 38 5 46 10 19 12
37 13 45 1z m-2017 -99 c2 -18 -1 -32 -7 -32 -6 0 -11 6 -11 13 0 6 -3 23 -7
36 -4 18 -2 23 8 19 8 -2 15 -19 17 -36z m1274 -66 c19 -8 45 -12 56 -9 13 3
22 1 22 -6 0 -6 -4 -11 -9 -11 -5 0 -17 -22 -26 -49 -9 -27 -23 -55 -31 -61
-16 -14 -20 -35 -4 -25 10 6 47 -22 39 -29 -18 -16 -47 -12 -71 9 -25 21 -28
33 -32 97 -3 43 -1 77 6 85 13 16 8 16 50 -1z m-1202 -39 c0 -28 -4 -33 -27
-35 -40 -3 -63 51 -25 61 44 12 52 8 52 -26z m-3880 4 c0 -5 -9 -13 -20 -16
-11 -3 -20 -13 -20 -21 0 -8 -4 -14 -10 -14 -15 0 -12 18 8 39 18 21 42 27 42
12z m5381 -23 c22 -6 39 -15 39 -20 0 -13 30 -9 46 7 22 22 71 19 77 -4 9 -34
-9 -51 -46 -40 -49 14 -57 11 -63 -21 -8 -39 -47 -41 -76 -5 -11 14 -37 35
-59 45 -45 24 -47 27 -16 40 31 12 53 12 98 -2z m-1341 -187 c0 -12 -28 -22
-34 -12 -3 5 -3 11 1 15 9 9 33 7 33 -3z m1240 -149 c0 -4 -9 -13 -20 -20 -18
-11 -20 -10 -20 8 0 13 7 20 20 20 11 0 20 -3 20 -8z m-200 -122 c0 -5 -9 -10
-20 -10 -11 0 -20 -4 -20 -10 0 -5 -10 -10 -22 -9 l-23 0 21 9 c12 5 25 13 29
19 8 14 35 14 35 1z m-1217 -17 c-7 -2 -21 -2 -30 0 -10 3 -4 5 12 5 17 0 24
-2 18 -5z m-1598 -23 c3 -5 -1 -10 -10 -10 -9 0 -13 5 -10 10 3 6 8 10 10 10
2 0 7 -4 10 -10z m2762 -16 c-3 -3 -12 -4 -19 -1 -8 3 -5 6 6 6 11 1 17 -2 13
-5z m-1700 -40 c-3 -3 -12 -4 -19 -1 -8 3 -5 6 6 6 11 1 17 -2 13 -5z m2192
-156 c1 -25 -4 -38 -12 -38 -14 0 -18 28 -10 80 5 30 7 32 13 15 5 -11 9 -37
9 -57z m-5726 -235 c-7 -2 -19 -2 -25 0 -7 3 -2 5 12 5 14 0 19 -2 13 -5z
m-247 -120 c-10 -10 -19 5 -10 18 6 11 8 11 12 0 2 -7 1 -15 -2 -18z m-1016
-12 c0 -5 -10 -11 -23 -13 -15 -3 -24 0 -24 9 0 7 11 13 24 13 13 0 23 -4 23
-9z m133 -18 c-13 -2 -33 -2 -45 0 -13 2 -3 4 22 4 25 0 35 -2 23 -4z"/>
<path d="M2791 9134 c0 -11 3 -14 6 -6 3 7 2 16 -1 19 -3 4 -6 -2 -5 -13z"/>
<path d="M2820 9107 c0 -8 7 -20 15 -27 8 -7 15 -21 15 -31 0 -11 7 -19 16
-19 13 0 14 3 5 14 -7 8 -11 27 -9 43 2 23 -1 29 -19 31 -15 2 -23 -2 -23 -11z"/>
<path d="M930 8664 c0 -8 5 -12 10 -9 6 3 10 10 10 16 0 5 -4 9 -10 9 -5 0
-10 -7 -10 -16z"/>
<path d="M6672 8342 c-7 -5 -14 -16 -16 -25 -1 -9 -11 -26 -21 -37 -15 -17
-17 -25 -8 -39 8 -13 7 -27 -3 -56 -7 -21 -11 -42 -8 -47 10 -16 53 -8 68 13
9 13 21 19 30 16 19 -8 33 12 16 23 -7 4 -20 5 -30 3 -22 -6 -34 11 -17 25 19
16 92 27 83 13 -9 -13 22 -15 43 -2 12 8 12 13 -2 35 -9 14 -17 32 -17 40 0 9
-8 20 -18 25 -28 15 -86 22 -100 13z"/>
<path d="M6860 8335 c-10 -12 -10 -15 3 -15 19 0 31 16 18 24 -5 3 -14 -1 -21
-9z"/>
<path d="M5120 10214 c0 -14 5 -35 12 -47 18 -33 19 -84 3 -101 -8 -8 -15 -19
-15 -25 0 -14 -6 -14 -31 -1 -10 6 -19 17 -19 25 0 8 -6 15 -14 15 -23 0 -37
-26 -30 -54 6 -25 4 -26 -31 -26 -63 0 -84 -45 -40 -86 14 -13 25 -32 25 -42
0 -11 7 -23 17 -26 17 -7 79 9 100 26 7 6 18 -1 32 -21 12 -16 37 -35 56 -41
19 -6 35 -16 35 -21 0 -18 55 -9 68 11 7 11 19 20 27 20 9 0 29 10 45 21 16
12 36 19 44 16 8 -3 22 0 30 8 8 8 19 15 25 15 6 0 15 9 21 20 6 11 17 20 25
20 8 0 17 12 21 28 3 15 8 34 11 42 11 29 11 165 1 171 -18 12 -49 -3 -63 -30
-8 -16 -12 -49 -11 -79 3 -47 1 -52 -19 -52 -11 0 -26 -5 -33 -12 -9 -9 -12
-9 -12 0 0 8 -22 12 -70 12 l-69 0 -10 38 c-15 51 -14 69 1 54 28 -28 117 0
136 42 7 16 8 26 2 26 -15 0 -12 27 6 44 8 9 20 14 25 11 5 -4 6 1 3 9 -7 19
-60 21 -67 4 -4 -10 -6 -10 -6 0 -1 9 -31 12 -116 12 l-115 0 0 -26z m150
-330 c0 -8 -4 -12 -10 -9 -5 3 -10 10 -10 16 0 5 5 9 10 9 6 0 10 -7 10 -16z"/>
<path d="M7490 10226 c0 -39 68 -80 148 -89 l42 -5 0 54 0 54 -95 0 c-76 0
-95 -3 -95 -14z"/>
<path d="M5600 9883 c0 -4 8 -17 16 -28 15 -20 16 -20 12 4 -3 22 -28 44 -28
24z"/>
<path d="M4747 9860 c-8 -31 16 -43 42 -21 26 23 20 41 -13 41 -15 0 -26 -7
-29 -20z"/>
<path d="M5326 9651 c-4 -5 -2 -12 3 -15 5 -4 12 -2 15 3 4 5 2 12 -3 15 -5 4
-12 2 -15 -3z"/>
<path d="M5700 9565 c0 -8 5 -15 10 -15 6 0 10 7 10 15 0 8 -4 15 -10 15 -5 0
-10 -7 -10 -15z"/>
<path d="M7657 9253 c-4 -3 -7 -15 -7 -25 0 -10 -7 -18 -15 -18 -9 0 -12 -6
-9 -15 9 -23 29 -18 42 10 19 41 12 71 -11 48z"/>
<path d="M7425 9218 c-10 -18 -31 -44 -46 -58 -45 -44 -49 -151 -4 -134 7 3
16 -3 19 -13 4 -10 18 -27 33 -37 25 -19 26 -19 40 0 11 15 17 16 32 7 14 -9
28 -8 60 3 45 15 61 12 61 -12 0 -27 -29 -60 -65 -74 -19 -8 -35 -18 -35 -22
0 -5 -16 -16 -35 -24 -20 -8 -39 -22 -42 -32 -4 -9 -10 -20 -15 -23 -5 -3 -1
-20 8 -38 13 -26 14 -38 5 -57 -15 -33 -14 -34 8 -34 19 0 45 -23 36 -32 -3
-2 -1 -26 4 -51 5 -30 5 -47 -1 -47 -14 0 -58 -36 -52 -43 3 -2 21 -1 41 4 40
9 53 5 53 -15 0 -17 38 -28 46 -14 3 5 12 7 18 5 7 -3 19 -1 26 3 9 6 18 3 25
-7 30 -41 35 -3 35 282 l0 284 -25 3 c-14 2 -26 8 -26 13 0 6 12 11 26 13 19
3 25 9 25 29 0 19 -4 24 -17 19 -9 -4 -20 -1 -24 6 -6 9 -11 9 -23 -1 -12 -10
-18 -9 -35 8 -12 12 -22 28 -22 36 -1 8 -3 20 -4 25 -1 6 -3 14 -4 20 -1 13
-29 26 -71 34 -32 6 -37 3 -55 -26z m205 -690 c0 -6 -6 -5 -15 2 -8 7 -15 14
-15 16 0 2 7 1 15 -2 8 -4 15 -11 15 -16z"/>
<path d="M5563 9153 c-3 -10 -8 -21 -10 -25 -2 -5 8 -8 22 -8 21 0 26 4 23 22
-4 28 -26 35 -35 11z"/>
<path d="M7585 9161 c-3 -5 -1 -12 5 -16 5 -3 10 1 10 9 0 18 -6 21 -15 7z"/>
<path d="M5603 9110 c-7 -10 -10 -26 -7 -34 3 -8 1 -17 -5 -20 -11 -7 6 -66
19 -66 15 0 22 20 12 33 -10 13 -10 50 2 85 9 27 -5 29 -21 2z"/>
<path d="M4760 9015 c-7 -8 -10 -24 -7 -36 3 -12 1 -29 -5 -39 -7 -11 -8 -33
-2 -66 7 -39 13 -49 29 -49 11 0 23 -4 27 -9 10 -15 47 35 48 64 0 15 -8 30
-20 38 -11 6 -25 32 -31 57 -13 52 -22 61 -39 40z"/>
<path d="M5570 8990 c0 -5 5 -10 10 -10 6 0 10 5 10 10 0 6 -4 10 -10 10 -5 0
-10 -4 -10 -10z"/>
<path d="M4691 8974 c0 -11 3 -14 6 -6 3 7 2 16 -1 19 -3 4 -6 -2 -5 -13z"/>
<path d="M7330 8933 c0 -22 36 -60 47 -50 3 4 1 7 -6 7 -7 0 -11 6 -8 14 3 8
-3 22 -14 32 -18 16 -19 16 -19 -3z"/>
<path d="M5770 8660 c0 -5 5 -10 11 -10 5 0 7 5 4 10 -3 6 -8 10 -11 10 -2 0
-4 -4 -4 -10z"/>
<path d="M7554 8339 c-9 -10 -25 -19 -36 -19 -10 0 -18 -6 -18 -14 0 -20 30
-29 36 -11 9 22 60 18 83 -6 13 -14 21 -17 26 -9 4 6 13 9 21 6 10 -4 14 4 14
32 l0 37 -54 2 c-42 1 -58 -2 -72 -18z"/>
<path d="M5300 8245 c-10 -13 -8 -20 14 -41 31 -32 61 -26 50 8 -14 48 -41 61
-64 33z"/>
<path d="M4848 7683 c7 -3 16 -2 19 1 4 3 -2 6 -13 5 -11 0 -14 -3 -6 -6z"/>
<path d="M2810 7400 l-25 -8 27 -1 c15 -1 30 4 33 9 7 11 0 11 -35 0z"/>
<path d="M4220 7352 c0 -20 23 -29 61 -22 21 4 39 3 39 -1 0 -5 9 -9 20 -9 11
0 20 4 20 10 0 5 7 7 15 4 9 -4 15 0 15 8 0 11 -19 15 -85 16 -47 1 -85 -2
-85 -6z"/>
<path d="M4005 7280 c4 -6 11 -8 16 -5 14 9 11 15 -7 15 -8 0 -12 -5 -9 -10z"/>
<path d="M2500 7250 c0 -5 9 -10 20 -10 11 0 20 5 20 10 0 6 -9 10 -20 10 -11
0 -20 -4 -20 -10z"/>
<path d="M4010 7235 c-10 -12 -10 -15 4 -15 9 0 16 7 16 15 0 8 -2 15 -4 15
-2 0 -9 -7 -16 -15z"/>
<path d="M6606 7182 c-2 -4 2 -15 9 -25 11 -16 13 -16 19 -1 3 8 6 20 6 25 0
11 -27 12 -34 1z"/>
<path d="M5040 7160 c0 -5 16 -10 35 -10 19 0 35 5 35 10 0 6 -16 10 -35 10
-19 0 -35 -4 -35 -10z"/>
<path d="M2439 7144 c-2 -11 -2 -39 1 -64 l6 -45 5 50 c6 51 -4 96 -12 59z"/>
<path d="M5950 7120 l-35 -6 43 -8 c31 -6 42 -12 38 -22 -4 -9 2 -14 16 -14
18 0 19 2 7 17 -27 35 -34 38 -69 33z"/>
<path d="M6560 7076 c0 -38 3 -43 18 -39 13 3 17 13 16 33 -4 64 -34 69 -34 6z"/>
<path d="M6680 7066 c0 -14 -12 -33 -31 -49 -29 -23 -30 -27 -16 -41 9 -9 25
-16 36 -16 17 0 21 6 21 29 0 19 8 35 21 44 17 13 19 19 10 36 -16 29 -41 27
-41 -3z"/>
<path d="M5920 7070 c0 -5 9 -10 21 -10 11 0 17 5 14 10 -3 6 -13 10 -21 10
-8 0 -14 -4 -14 -10z"/>
<path d="M4460 7055 c-10 -12 -10 -15 4 -15 9 0 16 7 16 15 0 8 -2 15 -4 15
-2 0 -9 -7 -16 -15z"/>
<path d="M5275 6695 c-29 -54 -142 -155 -174 -155 -18 0 -22 -3 -13 -9 34 -21
-103 -73 -163 -61 l-29 5 24 16 c29 18 75 36 110 43 14 3 -2 3 -34 0 -35 -3
-78 -14 -105 -28 -25 -14 -64 -29 -86 -35 -22 -6 -64 -31 -93 -56 -85 -71
-129 -88 -262 -95 -111 -6 -134 -12 -222 -58 -4 -2 -6 17 -4 43 2 31 11 54 27
72 13 14 18 24 10 21 -12 -3 -42 -49 -53 -79 -2 -4 -10 -9 -18 -11 -8 -2 -19
-7 -23 -13 -4 -6 -7 -2 -5 9 2 13 -10 28 -37 47 -22 15 -43 25 -47 23 -4 -2
-22 5 -40 16 -18 11 -41 20 -50 20 -9 0 -24 8 -34 17 -13 13 -19 14 -22 5 -6
-19 -43 -14 -49 7 -4 16 -9 18 -30 10 -16 -6 -22 -6 -18 1 3 6 2 10 -4 10 -5
0 -11 -6 -14 -12 -2 -7 -7 -10 -11 -6 -11 9 12 47 26 44 14 -3 66 -24 78 -31
4 -2 7 2 7 10 0 8 -13 17 -29 20 -15 4 -28 11 -28 17 0 7 -21 8 -57 5 -32 -3
-49 -3 -38 2 80 30 86 34 74 41 -14 9 -38 2 -58 -18 -20 -20 -39 2 -20 24 9
12 10 15 2 10 -7 -4 -13 -2 -13 3 0 6 5 11 10 11 6 0 10 7 10 15 0 12 -9 10
-41 -10 -37 -24 -39 -24 -29 -6 15 29 -3 26 -26 -3 -10 -14 -22 -22 -27 -19
-6 4 -8 -6 -4 -23 8 -40 -9 -69 -18 -32 -4 15 -4 36 0 47 4 14 2 21 -7 21 -23
0 -108 -58 -108 -74 0 -15 -34 -31 -48 -22 -12 7 -82 -16 -76 -25 2 -4 -15
-13 -38 -20 -24 -6 -53 -15 -65 -20 -18 -7 -21 -5 -16 9 7 16 -11 4 -77 -51
-8 -6 -17 -12 -20 -11 -6 0 -23 -13 -50 -40 -10 -10 -23 -15 -29 -12 -6 4 -9
1 -5 -7 3 -8 -2 -17 -10 -20 -17 -7 -30 8 -21 22 3 5 0 13 -6 17 -8 5 -10 -1
-7 -20 4 -20 1 -26 -13 -26 -21 0 -25 -15 -6 -24 6 -3 2 -3 -9 -1 -14 4 -24 0
-28 -10 -3 -8 -12 -15 -19 -15 -8 0 -30 -17 -49 -37 -20 -21 -64 -63 -99 -94
-51 -45 -73 -74 -108 -144 -24 -50 -62 -107 -87 -133 -46 -47 -55 -75 -28 -90
15 -8 13 -13 -14 -37 -17 -15 -36 -40 -42 -56 -7 -16 -16 -29 -21 -29 -5 0 -6
-33 -3 -74 6 -65 4 -79 -17 -121 -13 -26 -34 -52 -47 -58 -22 -10 -38 -47 -34
-79 2 -9 -2 -19 -8 -23 -17 -11 -11 -61 11 -89 20 -25 20 -28 4 -53 -19 -29
-22 -84 -6 -126 19 -49 13 -64 -33 -91 -30 -18 -50 -39 -65 -71 -25 -52 -28
-137 -6 -175 8 -14 14 -19 15 -12 0 7 5 10 11 7 6 -4 8 -14 5 -22 -4 -9 -2
-11 5 -7 7 4 20 -4 29 -17 18 -23 18 -24 -27 -73 -117 -130 -117 -247 -1 -286
l46 -16 -62 -34 c-36 -21 -101 -75 -161 -135 -55 -55 -145 -143 -201 -195 -55
-52 -122 -126 -148 -165 -26 -38 -78 -115 -117 -170 -38 -55 -90 -129 -114
-165 -25 -36 -77 -101 -116 -145 -82 -92 -90 -106 -114 -199 -12 -44 -32 -87
-57 -120 -21 -28 -38 -55 -38 -61 0 -11 -127 -5 -145 7 -6 4 -35 9 -65 12 -80
9 -114 17 -122 30 -6 8 -11 7 -18 -4 -5 -8 -10 -10 -10 -4 0 14 -151 23 -448
29 -131 3 -209 8 -217 15 -8 7 -61 12 -129 13 l-116 2 0 -1462 0 -1463 3840 0
3840 0 0 1350 c0 949 -3 1350 -11 1350 -15 0 -50 -19 -82 -46 -34 -29 -106
-41 -138 -23 -32 17 -196 59 -230 59 -15 0 -39 -4 -53 -9 -13 -6 -72 -15 -130
-22 -101 -11 -107 -11 -147 10 -132 69 -216 83 -374 61 -201 -29 -228 -30
-267 -10 -20 10 -54 22 -75 26 -21 3 -44 11 -51 17 -8 7 -23 2 -50 -16 -44
-29 -198 -63 -240 -52 -31 7 -97 49 -130 82 -13 13 -34 23 -48 23 -35 0 -84
23 -114 52 -14 14 -40 30 -58 36 -45 16 -72 -11 -72 -71 0 -36 -6 -48 -32 -74
-38 -35 -132 -80 -233 -112 -38 -12 -77 -26 -86 -31 -9 -5 -35 -14 -58 -20
-22 -6 -41 -15 -41 -20 0 -4 -13 -11 -30 -15 -16 -4 -30 -11 -30 -15 0 -5 8
-7 18 -3 9 3 14 3 10 -1 -7 -9 -49 -17 -100 -19 -21 -1 -38 -5 -38 -8 0 -4
-14 -9 -31 -13 -26 -5 -29 -8 -19 -21 10 -12 5 -17 -25 -30 -21 -8 -56 -15
-79 -15 -22 0 -50 -7 -60 -15 -19 -15 -19 -15 -1 -28 13 -10 15 -16 6 -21 -7
-5 -18 0 -26 10 -16 22 -32 11 -37 -26 -4 -29 -29 -37 -51 -16 -8 8 -27 18
-42 22 -15 4 -30 15 -32 25 -6 21 -11 23 -33 9 -11 -7 -19 -4 -31 11 -15 20
-16 20 -55 -15 -21 -20 -42 -36 -46 -36 -9 0 -10 -32 -2 -54 3 -8 12 -12 20
-9 9 3 14 -2 14 -16 0 -12 -4 -21 -10 -21 -16 0 -12 -46 5 -60 18 -15 21 -45
3 -34 -8 5 -9 2 -4 -12 5 -10 11 -27 14 -37 4 -14 12 -18 34 -15 24 4 32 0 44
-24 l15 -29 -31 16 c-18 9 -33 15 -35 13 -2 -2 4 -27 14 -56 11 -31 14 -51 7
-49 -6 2 -13 17 -17 33 -3 17 -20 57 -37 91 -20 39 -33 84 -38 125 -4 40 -12
68 -23 76 -13 10 -13 14 -3 21 11 7 10 10 -3 15 -23 8 -27 8 -20 -4 3 -5 2
-10 -3 -10 -17 0 -19 92 -5 205 18 136 23 265 13 328 -4 26 -4 47 0 47 4 0 7
33 6 73 0 39 4 89 8 110 7 31 6 37 -8 37 -9 0 -17 3 -17 8 -1 4 -3 20 -5 35
-1 16 -12 44 -23 63 -12 20 -17 32 -11 29 13 -8 13 1 -2 42 -7 18 -16 33 -21
33 -4 0 -6 4 -3 9 3 5 -13 49 -35 97 -22 49 -50 109 -61 134 -12 25 -61 129
-109 232 -60 128 -85 194 -82 209 5 16 3 20 -6 15 -7 -5 -18 0 -26 10 -21 28
-18 40 5 19 11 -10 23 -15 27 -12 3 4 17 0 30 -8 13 -9 23 -12 22 -8 -1 4 0
13 1 18 1 6 1 26 1 45 -1 19 3 42 8 50 16 23 33 -2 35 -48 0 -31 4 -38 17 -35
12 4 19 -4 24 -26 6 -27 69 -101 87 -101 3 0 5 11 2 25 -5 31 5 53 16 35 5 -9
18 -7 51 8 45 21 69 16 69 -13 0 -16 64 -4 88 18 27 23 52 28 52 12 0 -9 22 9
49 39 64 70 79 118 63 194 -7 33 -8 60 -3 65 13 13 78 -11 95 -35 13 -18 11
-25 -13 -69 -15 -27 -41 -64 -58 -82 -82 -88 -94 -150 -38 -213 19 -21 34 -34
35 -28 0 6 -6 17 -14 23 -24 20 -29 67 -11 103 14 29 105 137 105 125 0 -2 -6
-20 -14 -38 -7 -19 -16 -52 -20 -74 -5 -34 -4 -37 6 -17 7 15 17 20 28 17 14
-4 19 2 24 28 3 18 20 47 37 63 l31 29 -7 -27 c-10 -40 1 -34 25 13 21 40 22
41 42 22 l21 -18 -17 32 c-20 40 -20 66 -1 103 18 35 35 39 35 9 0 -11 4 -18
9 -15 5 3 12 -4 15 -17 6 -21 7 -21 20 -4 13 17 15 15 23 -25 l9 -43 8 63 c4
34 10 62 13 62 3 0 12 -8 19 -17 13 -17 14 -17 7 2 -6 16 2 13 37 -15 25 -19
37 -25 27 -13 -10 12 -36 34 -58 49 -25 17 -39 34 -39 49 0 32 11 37 34 18 19
-17 19 -16 -1 7 -17 20 -21 36 -20 81 l1 56 22 -32 c12 -18 27 -50 34 -71 7
-21 21 -52 31 -69 28 -45 23 -52 -13 -19 l-32 29 32 -41 c18 -23 32 -46 32
-52 0 -5 6 -15 14 -21 11 -9 13 -6 10 16 -7 60 -14 90 -33 146 -11 33 -23 82
-26 110 -3 29 -8 69 -10 90 -6 43 8 49 36 16 25 -29 46 -106 57 -204 l9 -80 1
75 c1 76 -16 179 -35 215 -6 11 -23 31 -37 44 -29 28 -33 41 -11 41 37 0 111
-65 121 -106 4 -15 4 -63 1 -108 -6 -91 8 -74 19 23 10 88 -8 143 -60 186 -23
19 -54 39 -69 44 -15 6 -30 19 -34 28 -3 10 -20 33 -36 51 -24 25 -28 35 -19
44 19 19 14 42 -21 89 -39 52 -57 95 -55 127 2 21 6 22 39 17 65 -11 96 -8
122 11 58 42 47 91 -44 188 -38 41 -69 78 -68 83 3 19 -2 34 -10 28 -18 -10
-20 12 -3 27 31 27 53 29 91 7 20 -11 27 -13 16 -5 -95 76 -96 78 -135 183 -8
20 -17 30 -26 26 -11 -4 -11 -7 0 -19 8 -7 12 -23 9 -34 -5 -19 -6 -19 -25 6
-11 14 -21 36 -22 48 0 13 -4 22 -8 19 -5 -2 -8 3 -8 11 0 9 -4 16 -8 16 -5 0
-26 30 -47 66 -21 36 -53 78 -69 94 -17 15 -48 43 -68 61 -21 19 -39 45 -40
59 -2 14 -7 28 -12 32 -8 5 -12 23 -15 65 -1 6 -9 19 -18 29 -13 13 -14 19 -5
22 6 2 12 8 12 14 0 5 -9 6 -20 3 -14 -4 -20 -2 -20 9 0 13 5 14 26 6 34 -13
96 -13 131 2 15 6 33 12 38 14 15 3 96 42 129 62 49 28 76 54 124 117 25 33
50 63 54 66 5 3 6 13 2 22 -5 15 2 17 57 17 74 0 122 19 201 78 52 39 156 145
186 190 13 20 13 22 -5 22 -11 0 -26 -14 -38 -35z m-1680 -163 c15 -10 13 -31
-9 -80 -21 -46 -34 -51 -60 -23 -13 14 -28 17 -69 15 l-52 -3 45 10 c25 5 55
12 67 14 15 4 20 10 17 20 -4 9 4 23 17 35 27 22 30 23 44 12z m115 -2 c0 -5
-4 -10 -10 -10 -5 0 -10 5 -10 10 0 6 5 10 10 10 6 0 10 -4 10 -10z m-204 -99
c-7 -11 -76 -20 -76 -10 0 4 15 10 33 12 17 2 36 5 40 5 5 1 6 -2 3 -7z m1344
-22 c-7 -11 -14 -19 -16 -16 -7 7 7 37 17 37 6 0 5 -9 -1 -21z m-85 -49 c-30
-31 -58 -31 -29 1 9 10 20 16 25 14 4 -3 10 -1 14 5 3 5 9 10 12 10 4 0 -6
-13 -22 -30z m-629 -36 c18 -14 18 -14 -6 -3 -31 14 -36 19 -24 19 6 0 19 -7
30 -16z m518 2 c-11 -8 -34 -17 -50 -21 -25 -4 -23 -2 11 14 48 23 67 27 39 7z
m61 -6 c-3 -5 -12 -10 -18 -10 -7 0 -6 4 3 10 19 12 23 12 15 0z m-594 -37
c13 -16 12 -17 -3 -4 -10 7 -18 15 -18 17 0 8 8 3 21 -13z m559 13 c0 -11 -74
-48 -100 -50 -16 -1 -33 -6 -37 -11 -4 -4 1 -6 13 -3 12 3 21 0 21 -7 0 -7 -9
-10 -21 -8 -16 4 -18 2 -7 -5 10 -7 5 -12 -20 -20 -50 -16 -117 -18 -131 -4
-9 9 -9 12 3 12 30 0 91 22 83 30 -9 8 -132 -11 -167 -25 -14 -6 -16 -4 -10
11 5 13 3 15 -7 9 -8 -5 -11 -4 -6 3 4 6 13 9 20 6 19 -7 32 16 16 26 -9 5 -5
8 11 7 13 0 48 3 77 8 29 4 52 4 52 -1 0 -5 35 -9 78 -9 57 0 83 4 102 18 26
18 30 20 30 13z m-485 -34 c-3 -3 -11 0 -18 7 -9 10 -8 11 6 5 10 -3 15 -9 12
-12z m-30 -22 c10 -11 16 -20 13 -20 -3 0 -13 9 -23 20 -10 11 -16 20 -13 20
3 0 13 -9 23 -20z m229 -185 c11 -8 18 -17 15 -19 -7 -7 -69 34 -69 45 0 10
21 0 54 -26z m14 -49 c26 -31 27 -35 8 -32 -19 3 -43 23 -68 59 l-21 29 29
-15 c16 -8 39 -27 52 -41z m29 -79 c7 -11 13 -37 9 -37 -1 0 -20 21 -41 47
-40 47 -40 48 -8 25 18 -13 36 -28 40 -35z m141 -142 c9 -16 15 -33 14 -37 -1
-5 3 -7 9 -5 6 1 20 -14 30 -33 21 -36 81 -149 87 -162 2 -5 -3 -8 -12 -8 -9
0 -28 19 -42 42 -15 24 -33 49 -41 56 -7 7 -13 19 -13 25 0 7 7 3 15 -7 16
-21 19 -18 9 8 -3 9 -15 16 -25 16 -10 0 -19 5 -19 11 0 5 6 7 13 4 6 -4 3 0
-7 9 -10 8 -22 13 -26 11 -14 -9 -21 27 -8 44 10 13 10 14 -2 4 -21 -19 -30
-16 -30 11 0 13 -16 47 -35 75 -19 28 -35 54 -35 58 0 13 101 -91 118 -122z
m-213 95 c3 -5 1 -10 -4 -10 -6 0 -11 5 -11 10 0 6 2 10 4 10 3 0 8 -4 11 -10z
m73 -26 c-4 -3 -12 5 -18 18 -12 22 -12 22 6 6 10 -10 15 -20 12 -24z m57
-143 c-6 -5 -25 10 -25 20 0 5 6 4 14 -3 8 -7 12 -15 11 -17z m43 -49 c11 -10
24 -36 28 -57 7 -37 6 -38 -9 -23 -9 9 -21 18 -26 20 -9 3 -27 78 -19 78 3 0
14 -8 26 -18z m62 -82 c12 -23 12 -24 -3 -11 -10 7 -17 20 -17 29 0 18 3 16
20 -18z m54 -66 c3 -8 2 -12 -4 -9 -6 3 -10 10 -10 16 0 14 7 11 14 -7z m145
-19 c14 -25 17 -35 7 -35 -12 0 -36 40 -36 60 0 17 8 11 29 -25z m-64 -11 c3
-20 4 -39 1 -42 -3 -3 -6 0 -6 8 0 10 -3 10 -17 -1 -15 -13 -15 -12 -2 9 11
18 11 26 1 42 -10 16 -10 20 2 20 8 0 17 -15 21 -36z m55 -35 c0 -5 -4 -9 -10
-9 -5 0 -10 7 -10 16 0 8 5 12 10 9 6 -3 10 -10 10 -16z m-167 -27 c8 17 30
-18 35 -53 2 -22 -1 -26 -20 -25 -18 1 -25 9 -32 39 -5 20 -13 37 -18 37 -5 0
-6 5 -2 12 5 8 11 6 20 -6 9 -13 13 -14 17 -4z m118 -22 c1 -5 2 -14 3 -20 0
-5 29 -38 62 -72 57 -58 104 -128 104 -153 0 -6 -9 -19 -21 -28 -16 -14 -30
-17 -60 -12 -40 7 -52 23 -45 62 5 26 -30 76 -46 67 -7 -4 -8 -2 -4 4 7 11
-10 50 -29 65 -6 6 -6 10 3 14 17 7 15 23 -4 23 -13 0 -14 3 -4 15 6 8 9 18 6
24 -3 5 0 12 6 14 21 9 28 8 29 -3z m-2171 -40 c0 -16 -50 -60 -68 -60 -12 0
-12 3 -1 17 33 42 69 64 69 43z m2104 -56 c3 -9 6 -23 6 -32 0 -14 -4 -13 -21
5 -12 11 -18 26 -15 32 10 16 23 14 30 -5z m-2122 -76 c-7 -7 -12 -8 -12 -2 0
14 12 26 19 19 2 -3 -1 -11 -7 -17z m2118 15 c0 -5 13 -17 30 -28 16 -11 32
-26 35 -33 2 -7 -16 4 -40 25 -48 40 -51 43 -35 43 6 0 10 -3 10 -7z m-2226
-40 c5 9 12 17 17 17 5 0 9 -8 9 -17 0 -15 2 -16 10 -3 9 13 11 13 20 0 14
-21 12 -36 -4 -49 -11 -10 -17 -7 -30 11 -14 20 -21 18 -17 -5 1 -5 -4 -7 -11
-5 -18 6 -33 52 -23 74 7 16 9 15 15 -11 6 -25 8 -27 14 -12z m2324 -9 c-10
-10 -28 6 -28 24 0 15 1 15 17 -1 9 -9 14 -19 11 -23z m-2235 -200 c-32 -27
-43 -29 -43 -11 0 6 14 24 32 39 27 22 34 24 36 11 2 -9 -9 -26 -25 -39z
m2225 -83 c25 -34 16 -48 -15 -26 -14 10 -19 22 -16 35 3 11 6 20 7 20 1 0 12
-13 24 -29z m-2364 -160 c-6 -30 17 -85 46 -108 8 -6 11 -15 7 -19 -10 -10
-67 52 -68 75 -2 24 2 65 8 74 9 15 12 6 7 -22z m2396 -76 c7 -8 14 -32 17
-52 l5 -38 -21 20 c-12 12 -23 35 -25 53 -5 34 4 41 24 17z m-50 -87 c0 -14
-19 1 -31 25 -12 22 -12 22 10 3 11 -11 21 -23 21 -28z m2 -75 c11 -19 14 -34
8 -43 -12 -20 -24 -6 -44 54 -15 46 -15 48 2 33 9 -9 25 -29 34 -44z m-2287
-33 c4 -22 6 -42 5 -46 -1 -3 9 -15 22 -26 21 -18 35 -74 16 -62 -4 3 -8 -15
-8 -40 0 -40 -3 -46 -25 -52 -24 -6 -53 -2 -91 13 -12 5 -15 3 -9 -6 6 -10 3
-11 -13 -2 -26 14 -52 50 -52 71 1 8 10 -2 21 -22 11 -21 24 -38 30 -38 6 0 1
12 -10 26 -25 32 -27 64 -5 107 16 31 92 114 106 116 3 1 9 -17 13 -39z m2345
0 c0 -5 -2 -10 -4 -10 -3 0 -8 5 -11 10 -3 6 -1 10 4 10 6 0 11 -4 11 -10z
m-20 -50 c0 -5 -4 -10 -10 -10 -5 0 -10 5 -10 10 0 6 5 10 10 10 6 0 10 -4 10
-10z m6 -45 c6 -14 -3 -52 -10 -44 -2 2 -6 16 -10 32 -7 29 10 39 20 12z
m-305 -50 c7 0 14 -6 16 -12 4 -10 -3 -10 -26 -2 -21 8 -31 18 -31 32 0 20 0
20 14 1 8 -10 20 -19 27 -19z m37 0 c-3 -3 -9 2 -12 12 -6 14 -5 15 5 6 7 -7
10 -15 7 -18z m-98 -147 c0 -30 -13 -58 -26 -58 -17 0 -18 11 -2 45 12 26 28
34 28 13z m-350 -90 c0 -6 -7 -5 -15 2 -8 7 -15 17 -15 22 0 6 7 5 15 -2 8 -7
15 -17 15 -22z m311 -41 c-8 -8 -11 -7 -11 4 0 20 13 34 18 19 3 -7 -1 -17 -7
-23z m-359 -6 c-10 -6 -7 -10 13 -15 18 -5 25 -12 23 -24 -2 -9 -10 -16 -17
-14 -10 2 -12 -7 -9 -33 3 -30 2 -33 -10 -21 -20 20 -34 99 -19 108 7 4 17 8
22 8 6 0 4 -4 -3 -9z m-2932 -1713 c0 -5 -7 -3 -15 6 -8 8 -15 18 -15 22 0 3
7 1 15 -6 8 -7 15 -17 15 -22z m-555 -36 c-3 -8 -5 -21 -6 -30 -1 -29 -18 19
-18 53 0 29 0 29 15 10 8 -11 12 -26 9 -33z m5042 -18 c-3 -3 -12 -4 -19 -1
-8 3 -5 6 6 6 11 1 17 -2 13 -5z m-137 -19 c0 -3 -9 -14 -19 -24 -16 -16 -18
-26 -11 -50 5 -17 5 -33 0 -36 -14 -8 -23 85 -9 101 11 13 39 20 39 9z m-361
-42 c-9 -2 -24 -21 -32 -41 -14 -33 -15 -34 -10 -7 7 38 21 55 42 54 15 -1 15
-2 0 -6z m-635 -39 c9 -3 16 -16 16 -28 -1 -19 -2 -19 -11 -3 -5 9 -17 17 -25
17 -8 0 -12 5 -9 10 7 12 8 12 29 4z m150 -1 c-5 -5 -12 -12 -16 -18 -4 -6 -8
-2 -8 8 0 9 7 17 17 17 9 0 12 -3 7 -7z m-4114 -88 c0 -8 -2 -15 -4 -15 -2 0
-6 7 -10 15 -3 8 -1 15 4 15 6 0 10 -7 10 -15z m3930 -115 c11 -11 23 -32 26
-46 4 -15 28 -47 53 -71 38 -37 49 -43 63 -34 33 21 43 11 13 -13 l-30 -24
-23 32 c-12 17 -57 52 -99 79 -43 26 -71 47 -64 47 7 0 21 -5 32 -11 35 -18
42 -4 14 29 -29 35 -18 45 15 12z m279 -124 c-2 -2 -22 -6 -44 -9 -28 -5 -34
-4 -20 3 19 8 73 14 64 6z m556 -96 c-3 -5 -12 -10 -18 -10 -7 0 -6 4 3 10 19
12 23 12 15 0z m-545 -180 c0 -5 -4 -10 -9 -10 -6 0 -13 5 -16 10 -3 6 1 10 9
10 9 0 16 -4 16 -10z m-195 -85 c-41 -35 -55 -42 -55 -26 0 9 78 61 90 61 3 0
-13 -16 -35 -35z m200 -1343 c-3 -3 -11 0 -18 7 -9 10 -8 11 6 5 10 -3 15 -9
12 -12z m75 -71 c0 -5 10 -13 23 -20 12 -6 14 -9 5 -7 -9 3 -34 8 -55 12 -36
6 -37 5 -18 -10 19 -15 19 -15 -15 -15 -19 0 -46 6 -60 14 l-25 14 23 1 c13 0
21 4 18 9 -3 4 19 9 49 9 30 0 55 -3 55 -7z m257 -21 c2 -17 -2 -18 -17 -10
-10 5 -28 10 -39 10 -40 0 -29 18 12 18 36 1 43 -2 44 -18z m33 6 c0 -3 -4 -8
-10 -11 -5 -3 -10 -1 -10 4 0 6 5 11 10 11 6 0 10 -2 10 -4z m-467 -13 c-7 -2
-19 -2 -25 0 -7 3 -2 5 12 5 14 0 19 -2 13 -5z m187 -13 c0 -5 -4 -10 -10 -10
-5 0 -10 5 -10 10 0 6 5 10 10 10 6 0 10 -4 10 -10z"/>
<path d="M3563 6513 c-19 -7 -16 -19 6 -19 11 0 17 5 14 13 -3 7 -6 13 -7 12
0 0 -7 -3 -13 -6z"/>
<path d="M4739 6353 c-13 -16 -12 -17 4 -4 16 13 21 21 13 21 -2 0 -10 -8 -17
-17z"/>
<path d="M4506 6231 c-4 -7 -5 -15 -2 -18 9 -9 19 4 14 18 -4 11 -6 11 -12 0z"/>
<path d="M4825 5150 c3 -5 11 -10 16 -10 6 0 7 5 4 10 -3 6 -11 10 -16 10 -6
0 -7 -4 -4 -10z"/>
<path d="M7488 6723 c7 -3 16 -2 19 1 4 3 -2 6 -13 5 -11 0 -14 -3 -6 -6z"/>
<path d="M800 6705 c0 -11 11 -15 40 -15 29 0 40 4 40 15 0 11 -11 15 -40 15
-29 0 -40 -4 -40 -15z"/>
<path d="M248 6653 c6 -2 18 -2 25 0 6 3 1 5 -13 5 -14 0 -19 -2 -12 -5z"/>
<path d="M175 6620 c3 -5 19 -10 36 -10 16 0 29 5 29 10 0 6 -16 10 -36 10
-21 0 -33 -4 -29 -10z"/>
<path d="M3788 6613 c7 -3 16 -2 19 1 4 3 -2 6 -13 5 -11 0 -14 -3 -6 -6z"/>
<path d="M3865 6530 c-3 -5 1 -10 9 -10 9 0 16 5 16 10 0 6 -4 10 -9 10 -6 0
-13 -4 -16 -10z"/>
<path d="M3915 6530 c-3 -5 -1 -10 4 -10 6 0 11 5 11 10 0 6 -2 10 -4 10 -3 0
-8 -4 -11 -10z"/>
<path d="M3275 6450 c-3 -5 -1 -10 4 -10 6 0 11 5 11 10 0 6 -2 10 -4 10 -3 0
-8 -4 -11 -10z"/>
<path d="M4285 6430 c-3 -6 1 -7 9 -4 18 7 21 14 7 14 -6 0 -13 -4 -16 -10z"/>
<path d="M4888 6423 c7 -3 16 -2 19 1 4 3 -2 6 -13 5 -11 0 -14 -3 -6 -6z"/>
<path d="M4440 6030 c27 -51 67 -100 155 -192 53 -55 107 -121 120 -147 13
-25 24 -41 25 -35 1 26 -78 135 -159 220 -49 51 -99 111 -112 133 -22 41 -50
60 -29 21z"/>
<path d="M5011 4374 c0 -11 3 -14 6 -6 3 7 2 16 -1 19 -3 4 -6 -2 -5 -13z"/>
<path d="M4993 4305 c-8 -8 -10 -27 -5 -52 l6 -38 7 50 c3 28 6 51 5 51 -1 1
-6 -4 -13 -11z"/>
<path d="M4930 4201 c0 -6 4 -13 10 -16 6 -3 7 1 4 9 -7 18 -14 21 -14 7z"/>
<path d="M4980 4183 c0 -13 5 -23 10 -23 13 0 13 11 0 30 -8 12 -10 11 -10 -7z"/>
<path d="M4970 4142 c6 -13 14 -21 18 -18 3 4 -2 14 -12 24 -18 16 -18 16 -6
-6z"/>
<path d="M4176 2379 c-9 -46 -8 -49 14 -49 11 0 20 7 20 16 0 9 -5 12 -11 8
-8 -5 -10 3 -7 25 6 40 -8 41 -16 0z"/>
</g>
</svg>
