<?xml version="1.0" standalone="no"?>
<svg xmlns:xlink="http://www.w3.org/1999/xlink" id="wave" style="transform:rotate(0deg); transition: 0.3s" viewBox="0 0 1240 330" version="1.1" xmlns="http://www.w3.org/2000/svg"><defs><linearGradient id="sw-gradient-0" x1="0" x2="0" y1="1" y2="0"><stop stop-color="rgba(207, 46, 46, 1)" offset="0%"/><stop stop-color="rgba(255, 105, 0, 1)" offset="100%"/></linearGradient></defs><path style="transform:translate(0, 0px); opacity:1" fill="url(#sw-gradient-0)" d="M0,66L60,55C120,44,240,22,360,55C480,88,600,176,720,192.5C840,209,960,154,1080,121C1200,88,1320,77,1440,66C1560,55,1680,44,1800,82.5C1920,121,2040,209,2160,247.5C2280,286,2400,275,2520,225.5C2640,176,2760,88,2880,88C3000,88,3120,176,3240,187C3360,198,3480,132,3600,137.5C3720,143,3840,220,3960,253C4080,286,4200,275,4320,264C4440,253,4560,242,4680,214.5C4800,187,4920,143,5040,137.5C5160,132,5280,165,5400,154C5520,143,5640,88,5760,88C5880,88,6000,143,6120,165C6240,187,6360,176,6480,143C6600,110,6720,55,6840,38.5C6960,22,7080,44,7200,49.5C7320,55,7440,44,7560,82.5C7680,121,7800,209,7920,203.5C8040,198,8160,99,8280,82.5C8400,66,8520,132,8580,165L8640,198L8640,330L8580,330C8520,330,8400,330,8280,330C8160,330,8040,330,7920,330C7800,330,7680,330,7560,330C7440,330,7320,330,7200,330C7080,330,6960,330,6840,330C6720,330,6600,330,6480,330C6360,330,6240,330,6120,330C6000,330,5880,330,5760,330C5640,330,5520,330,5400,330C5280,330,5160,330,5040,330C4920,330,4800,330,4680,330C4560,330,4440,330,4320,330C4200,330,4080,330,3960,330C3840,330,3720,330,3600,330C3480,330,3360,330,3240,330C3120,330,3000,330,2880,330C2760,330,2640,330,2520,330C2400,330,2280,330,2160,330C2040,330,1920,330,1800,330C1680,330,1560,330,1440,330C1320,330,1200,330,1080,330C960,330,840,330,720,330C600,330,480,330,360,330C240,330,120,330,60,330L0,330Z"/><defs><linearGradient id="sw-gradient-1" x1="0" x2="0" y1="1" y2="0"><stop stop-color="rgba(207, 46, 46, 1)" offset="0%"/><stop stop-color="rgba(255, 105, 0, 1)" offset="100%"/></linearGradient></defs><path style="transform:translate(0, 50px); opacity:0.9" fill="url(#sw-gradient-1)" d="M0,99L60,104.5C120,110,240,121,360,104.5C480,88,600,44,720,66C840,88,960,176,1080,192.5C1200,209,1320,154,1440,154C1560,154,1680,209,1800,231C1920,253,2040,242,2160,247.5C2280,253,2400,275,2520,236.5C2640,198,2760,99,2880,82.5C3000,66,3120,132,3240,165C3360,198,3480,198,3600,214.5C3720,231,3840,264,3960,247.5C4080,231,4200,165,4320,143C4440,121,4560,143,4680,170.5C4800,198,4920,231,5040,225.5C5160,220,5280,176,5400,154C5520,132,5640,132,5760,154C5880,176,6000,220,6120,214.5C6240,209,6360,154,6480,110C6600,66,6720,33,6840,38.5C6960,44,7080,88,7200,99C7320,110,7440,88,7560,115.5C7680,143,7800,220,7920,209C8040,198,8160,99,8280,99C8400,99,8520,198,8580,247.5L8640,297L8640,330L8580,330C8520,330,8400,330,8280,330C8160,330,8040,330,7920,330C7800,330,7680,330,7560,330C7440,330,7320,330,7200,330C7080,330,6960,330,6840,330C6720,330,6600,330,6480,330C6360,330,6240,330,6120,330C6000,330,5880,330,5760,330C5640,330,5520,330,5400,330C5280,330,5160,330,5040,330C4920,330,4800,330,4680,330C4560,330,4440,330,4320,330C4200,330,4080,330,3960,330C3840,330,3720,330,3600,330C3480,330,3360,330,3240,330C3120,330,3000,330,2880,330C2760,330,2640,330,2520,330C2400,330,2280,330,2160,330C2040,330,1920,330,1800,330C1680,330,1560,330,1440,330C1320,330,1200,330,1080,330C960,330,840,330,720,330C600,330,480,330,360,330C240,330,120,330,60,330L0,330Z"/></svg>