<?xml version="1.0" standalone="no"?><svg xmlns="http://www.w3.org/2000/svg" viewBox="0 0 1440 320"><path fill="#3d348b" fill-opacity="1" d="M0,224L34.3,202.7C68.6,181,137,139,206,133.3C274.3,128,343,160,411,165.3C480,171,549,149,617,144C685.7,139,754,149,823,176C891.4,203,960,245,1029,240C1097.1,235,1166,181,1234,149.3C1302.9,117,1371,107,1406,101.3L1440,96L1440,320L1405.7,320C1371.4,320,1303,320,1234,320C1165.7,320,1097,320,1029,320C960,320,891,320,823,320C754.3,320,686,320,617,320C548.6,320,480,320,411,320C342.9,320,274,320,206,320C137.1,320,69,320,34,320L0,320Z"></path></svg>